<?xml version="1.0" encoding="utf-8"?>
<!-- Generator: Adobe Illustrator 18.0.0, SVG Export Plug-In . SVG Version: 6.00 Build 0)  -->
<!DOCTYPE svg PUBLIC "-//W3C//DTD SVG 1.1//EN" "http://www.w3.org/Graphics/SVG/1.1/DTD/svg11.dtd">
<svg version="1.1" id="Layer_1" xmlns="http://www.w3.org/2000/svg" xmlns:xlink="http://www.w3.org/1999/xlink" x="0px" y="0px"
	 width="24px" height="48px" viewBox="0 0 24 48" enable-background="new 0 0 24 48" xml:space="preserve">
<path fill="#BBBBBB" d="M17.9,4H6C4.9,4,4,4.9,4,6v12c0,1.1,0.9,2,2,2h12c1.1,0,2-0.9,2-2V6C19.9,4.9,18.9,4,17.9,4z"/>
<path fill="#78B2F2" d="M17.9,27.9H6c-1.1,0-2,0.9-2,2v12c0,1.1,0.9,2,2,2h12c1.1,0,2-0.9,2-2v-12C19.9,28.8,18.9,27.9,17.9,27.9z"
	/>
<g>
	<path fill="#375A7A" d="M15.1,16.8L14.8,12c-0.1-1.2-0.1-2.5-0.1-3h-0.1l-1.8,6.9h-1.8L9.2,9H9.2c0.1,0.6,0.1,2,0,3.2l-0.3,4.7H7.1
		l0.8-9.7h2.4l1.8,6.8h0.1l1.7-6.8h2.4l0.8,9.7H15.1z"/>
</g>
<g>
	<path fill="#FFFFFF" d="M15.1,40.7l-0.3-4.9c-0.1-1.2-0.1-2.5-0.1-3h-0.1l-1.8,6.9h-1.8l-1.9-6.9H9.2c0.1,0.6,0.1,2,0,3.2l-0.3,4.7
		H7.1l0.8-9.7h2.4l1.8,6.8h0.1l1.7-6.8h2.4l0.8,9.7H15.1z"/>
</g>
</svg>
